<?xml version="1.0" encoding="UTF-8"?>
<svg version="1.1" xmlns="http://www.w3.org/2000/svg" width="100" height="100">
<path d="M0 0 C33 0 66 0 100 0 C100 33 100 66 100 100 C67 100 34 100 0 100 C0 67 0 34 0 0 Z " fill="#444442" transform="translate(0,0)"/>
<path d="M0 0 C21.45 0 42.9 0 65 0 C60.50296811 7.86980582 60.50296811 7.86980582 58.00390625 11.20703125 C57.45210693 11.94896729 56.90030762 12.69090332 56.33178711 13.45532227 C55.74792236 14.23319092 55.16405762 15.01105957 54.5625 15.8125 C53.3039598 17.50466735 52.04616446 19.19738891 50.7890625 20.890625 C49.83821777 22.16969727 49.83821777 22.16969727 48.86816406 23.47460938 C46.02714466 27.31510921 43.22926569 31.18611435 40.4375 35.0625 C39.90584229 35.80024658 39.37418457 36.53799316 38.82641602 37.2980957 C37.75363889 38.78724232 36.68112828 40.27658099 35.60888672 41.76611328 C32.90987864 45.51359795 30.20455249 49.25651595 27.5 53 C26.42447336 54.48957914 25.34895254 55.97916248 24.2734375 57.46875 C22.03064285 60.57436571 19.78554639 63.67830201 17.5390625 66.78125 C16.40097046 68.35411515 15.2629484 69.92703093 14.125 71.5 C13.31047363 72.62510986 13.31047363 72.62510986 12.47949219 73.77294922 C8.97713007 78.61979438 5.53500306 83.5005153 2.171875 88.4453125 C1.78515625 88.95835938 1.3984375 89.47140625 1 90 C0.67 90 0.34 90 0 90 C0 60.3 0 30.6 0 0 Z " fill="#424242" transform="translate(5,5)"/>
<path d="M0 0 C33 0 66 0 100 0 C100 33 100 66 100 100 C67 100 34 100 0 100 C0 67 0 34 0 0 Z M5 5 C5 34.7 5 64.4 5 95 C7.60316318 92.39683682 9.54475989 90.43379945 11.55859375 87.5234375 C12.01999756 86.862229 12.48140137 86.20102051 12.95678711 85.51977539 C13.68973999 84.45811157 13.68973999 84.45811157 14.4375 83.375 C15.50954022 81.83923158 16.58248695 80.30409561 17.65625 78.76953125 C18.20796875 77.9801416 18.7596875 77.19075195 19.328125 76.37744141 C21.99758516 72.58141293 24.71528058 68.82079415 27.4375 65.0625 C27.97761719 64.31653564 28.51773437 63.57057129 29.07421875 62.80200195 C30.17037962 61.28843421 31.26673374 59.7750064 32.36328125 58.26171875 C33.98509064 56.02060267 35.60265132 53.77648685 37.21875 51.53125 C42.84811848 43.71386927 48.51891891 35.93067967 54.25 28.1875 C63.96484547 17.20817332 63.96484547 17.20817332 70 5 C48.55 5 27.1 5 5 5 Z M71.7578125 8.3046875 C70.32664984 10.48109579 70.32664984 10.48109579 69.125 12.875 C68.09814593 14.54016875 67.06944691 16.20420096 66.0390625 17.8671875 C65.54051758 18.72280273 65.04197266 19.57841797 64.52832031 20.45996094 C62.10277386 24.49117265 59.29894197 28.22330542 56.5 32 C55.41463332 33.49852937 54.33130196 34.99853499 53.25 36.5 C46.75 45.5 46.75 45.5 45.12475586 47.75024414 C44.04211746 49.2493445 42.9595978 50.74853062 41.87719727 52.24780273 C39.15920177 56.01228168 36.43911932 59.77521904 33.71484375 63.53515625 C28.17286115 71.18758641 22.65412469 78.85600401 17.1875 86.5625 C16.66534912 87.2954126 16.14319824 88.0283252 15.60522461 88.78344727 C13.14073157 91.65141203 13.14073157 91.65141203 12 95 C24.0426003 96.20143574 24.0426003 96.20143574 36 95 C38.5643623 92.47101139 38.5643623 92.47101139 39.75 89.0625 C41.203125 85.73828125 41.203125 85.73828125 44 83 C53.09145115 80.99453284 62.75668926 81.67870845 72 82 C72 86.29 72 90.58 72 95 C79.59 95 87.18 95 95 95 C95 65.3 95 35.6 95 5 C77.60188435 3.05394427 77.60188435 3.05394427 71.7578125 8.3046875 Z " fill="#E6DB3B" transform="translate(0,0)"/>
<path d="M0 0 C0.33 0 0.66 0 1 0 C1 6.93 1 13.86 1 21 C-3.95 21 -8.9 21 -14 21 C-12.49916272 17.2479068 -11.52709966 15.07696266 -9.21484375 12.01171875 C-8.68439453 11.30595703 -8.15394531 10.60019531 -7.60742188 9.87304688 C-7.05634766 9.15181641 -6.50527344 8.43058594 -5.9375 7.6875 C-5.38255859 6.94693359 -4.82761719 6.20636719 -4.25585938 5.44335938 C-1.22776425 1.44155278 -1.22776425 1.44155278 0 0 Z " fill="#E5DB3B" transform="translate(71,42)"/>
</svg>
